<svg viewBox="0 0 141 135" fill="none" xmlns="http://www.w3.org/2000/svg">
<g filter="url(#filter0_d_1_45)">
<path d="M4 63.5467V32.292H10.0463V63.5467H4Z" fill="white"/>
<path d="M16.5315 63.5467V32.292H30.2903C31.7224 32.292 33.042 32.5937 34.2547 33.1941C35.4675 33.7945 36.5127 34.5893 37.3876 35.5698C38.2654 36.5531 38.9497 37.6669 39.4464 38.9142C39.943 40.1615 40.1913 41.4175 40.1913 42.6793C40.1913 44.704 39.686 46.5459 38.6783 48.2022C37.6706 49.8614 36.3048 51.0564 34.581 51.7903L41.6784 63.5438H34.8871L28.5347 53.0666H22.5779V63.5438H16.5315V63.5467ZM22.5779 47.7439H30.1574C30.7118 47.7439 31.2316 47.6104 31.7138 47.3465C32.196 47.0825 32.6118 46.7228 32.964 46.2674C33.3134 45.812 33.5906 45.2783 33.7956 44.6605C34.0006 44.0455 34.1017 43.3842 34.1017 42.6793C34.1017 41.9454 33.9833 41.2696 33.7523 40.6546C33.5184 40.0397 33.2037 39.5031 32.811 39.0477C32.4154 38.5923 31.9621 38.2413 31.4539 37.9918C30.9428 37.7424 30.4231 37.6176 29.8976 37.6176H22.5779V47.7439Z" fill="white"/>
<path d="M45.6717 63.5467V32.292H51.718V58.2182H67.5817V63.5438H45.6717V63.5467Z" fill="white"/>
<path d="M71.2603 63.5467V32.292H77.3066V63.5467H71.2603Z" fill="white"/>
<path d="M108.985 32.0977H102.456L98.053 38.7344L101.183 43.2536L108.985 32.0977Z" fill="white"/>
<path d="M108.506 63.2567L94.845 43.5698L91.0706 37.9918L86.9883 32.0977H80.4164L91.5014 47.9469L80.7658 63.3524H87.3405L94.744 52.1703L102.107 63.3524H108.635L108.569 63.2567H108.506Z" fill="white"/>
<path d="M59.1329 88.3097C57.8528 88.3097 56.7379 88.0206 55.7881 87.4425C54.8383 86.8644 54.095 86.1005 53.5582 85.1507V94.5968H49.4082V71.7714H53.0317V74.5587C53.6305 73.609 54.4048 72.8657 55.3545 72.3288C56.3249 71.7714 57.4192 71.4926 58.6374 71.4926C60.1034 71.4926 61.4041 71.8746 62.5397 72.6385C63.6753 73.3818 64.5735 74.3936 65.2342 75.6737C65.8949 76.9331 66.2252 78.3268 66.2252 79.8547C66.2252 81.4445 65.9155 82.8795 65.2961 84.1596C64.6973 85.4191 63.8611 86.4308 62.7875 87.1948C61.7345 87.9381 60.5163 88.3097 59.1329 88.3097ZM57.7393 84.7791C58.5858 84.7791 59.3188 84.5519 59.9382 84.0977C60.5782 83.6228 61.0738 83.0137 61.4248 82.2704C61.7964 81.5065 61.9822 80.7012 61.9822 79.8547C61.9822 78.9462 61.7861 78.1307 61.3938 77.408C61.0015 76.6647 60.4647 76.0866 59.7833 75.6737C59.1226 75.2401 58.3587 75.0233 57.4915 75.0233C56.7069 75.0233 55.9223 75.2814 55.1377 75.7976C54.3531 76.3137 53.8266 76.9641 53.5582 77.7487V81.5581C53.9299 82.4666 54.4977 83.2305 55.2616 83.8499C56.0256 84.4693 56.8514 84.7791 57.7393 84.7791ZM68.8822 81.9297V71.7714H73.0322V81.0316C73.0322 83.5299 73.9304 84.7791 75.7267 84.7791C76.5319 84.7791 77.3062 84.5416 78.0495 84.0667C78.8134 83.5712 79.4328 82.8279 79.9077 81.8368V71.7714H84.0578V83.3544C84.0578 83.8086 84.1301 84.1287 84.2746 84.3145C84.4191 84.4797 84.6772 84.5829 85.0489 84.6242V88C84.6359 88.0826 84.2849 88.1342 83.9959 88.1549C83.7274 88.1755 83.4797 88.1858 83.2526 88.1858C82.5093 88.1858 81.9002 88.0206 81.4253 87.6903C80.9711 87.3393 80.7026 86.8644 80.6201 86.2656L80.5271 84.9649C79.8045 86.0798 78.8754 86.916 77.7398 87.4735C76.6042 88.031 75.355 88.3097 73.9923 88.3097C72.3199 88.3097 71.0501 87.7729 70.1829 86.6992C69.3158 85.6049 68.8822 84.0151 68.8822 81.9297ZM97.4112 88.3097C96.1724 88.3097 95.0678 88.031 94.0974 87.4735C93.127 86.916 92.363 86.1521 91.8055 85.1817V88H88.182V65.3914H92.332V74.6207C92.9102 73.6503 93.6638 72.8863 94.5929 72.3288C95.5427 71.7714 96.6473 71.4926 97.9068 71.4926C99.3108 71.4926 100.539 71.8849 101.592 72.6695C102.666 73.4335 103.502 74.4555 104.101 75.7356C104.7 77.0157 104.999 78.4197 104.999 79.9476C104.999 81.5168 104.669 82.9311 104.008 84.1906C103.347 85.4501 102.439 86.4515 101.283 87.1948C100.147 87.9381 98.8565 88.3097 97.4112 88.3097ZM96.2653 84.7791C97.1531 84.7791 97.9274 84.5623 98.5881 84.1287C99.2695 83.6951 99.796 83.117 100.168 82.3943C100.56 81.651 100.756 80.8458 100.756 79.9786C100.756 79.0908 100.57 78.2752 100.199 77.5319C99.8476 76.768 99.3521 76.1589 98.712 75.7046C98.0719 75.2504 97.339 75.0233 96.5131 75.0233C95.6046 75.0233 94.7684 75.333 94.0045 75.9524C93.2612 76.5512 92.7037 77.2945 92.332 78.1823V82.0536C92.6005 82.8589 93.127 83.5196 93.9115 84.0358C94.6961 84.5313 95.4807 84.7791 96.2653 84.7791Z" fill="white"/>
<rect x="33.4976" y="-46" width="204.882" height="5.81978" transform="rotate(55.4712 33.4976 -46)" fill="white"/>
</g>
<defs>
<filter id="filter0_d_1_45" x="0" y="-46" width="153.629" height="180.089" filterUnits="userSpaceOnUse" color-interpolation-filters="sRGB">
<feFlood flood-opacity="0" result="BackgroundImageFix"/>
<feColorMatrix in="SourceAlpha" type="matrix" values="0 0 0 0 0 0 0 0 0 0 0 0 0 0 0 0 0 0 127 0" result="hardAlpha"/>
<feOffset dy="4"/>
<feGaussianBlur stdDeviation="2"/>
<feComposite in2="hardAlpha" operator="out"/>
<feColorMatrix type="matrix" values="0 0 0 0 0 0 0 0 0 0 0 0 0 0 0 0 0 0 0.25 0"/>
<feBlend mode="normal" in2="BackgroundImageFix" result="effect1_dropShadow_1_45"/>
<feBlend mode="normal" in="SourceGraphic" in2="effect1_dropShadow_1_45" result="shape"/>
</filter>
</defs>
</svg>
